<?xml version="1.0" standalone="no"?>
<!DOCTYPE svg PUBLIC "-//W3C//DTD SVG 20010904//EN"
 "http://www.w3.org/TR/2001/REC-SVG-20010904/DTD/svg10.dtd">
<svg version="1.0" fill="#000000"
  xmlns="http://www.w3.org/2000/svg" width="83.000000pt" height="83.000000pt" viewBox="0 0 83.000000 83.000000" preserveAspectRatio="xMidYMid meet">

  <g transform="translate(0.000000,83.000000) scale(0.100000,-0.100000)" stroke="none">
    <path d="M714 802 c-16 -16 -43 -45 -58 -65 l-28 -36 -29 21 -29 22 -58 -41
-57 -40 -3 -59 c-2 -50 -6 -61 -25 -69 -18 -8 -22 -19 -25 -67 -3 -49 -6 -58
-21 -58 -11 0 -21 7 -25 15 -8 21 -261 22 -273 1 -4 -8 -24 -16 -43 -18 l-35
-3 0 -200 0 -200 410 0 410 0 3 158 c2 102 -1 157 -8 157 -5 0 -10 -9 -10 -20
0 -19 -7 -20 -126 -20 l-125 0 3 53 3 52 50 3 c85 6 195 -8 195 -24 0 -8 5
-14 10 -14 7 0 10 33 8 93 l-3 92 -78 3 -78 3 22 30 22 31 -20 26 -20 27 63
60 c35 33 64 65 64 72 0 15 -28 43 -43 43 -7 0 -26 -13 -43 -28z m56 -15 c0
-23 -57 -70 -76 -63 -15 6 -13 11 16 41 35 36 60 45 60 22z m-180 -92 c11 -13
9 -20 -10 -40 -41 -44 2 -86 46 -44 23 21 26 22 41 7 15 -15 13 -20 -19 -65
l-34 -48 -70 0 -69 0 -3 71 -3 71 48 31 c56 37 56 37 73 17z m90 10 c0 -8 -85
-84 -89 -79 -6 5 70 84 81 84 4 0 8 -2 8 -5z m-220 -210 c9 -11 33 -15 90 -15
57 0 81 4 90 15 22 26 30 16 30 -35 l0 -50 -120 0 -120 0 0 50 c0 51 8 61 30
35z m350 -35 l0 -50 -55 0 -55 0 0 50 0 50 55 0 55 0 0 -50z m-470 -59 c0 -10
-9 -21 -20 -24 -17 -4 -20 -14 -20 -71 0 -52 -3 -66 -15 -66 -12 0 -15 13 -15
59 0 64 -13 85 -52 79 -13 -2 -27 -13 -33 -25 -12 -29 -35 -30 -35 -3 0 13
-10 24 -25 30 -25 9 -31 21 -18 33 3 4 57 7 120 7 104 0 113 -1 113 -19z
m-260 -26 c7 -8 18 -15 26 -15 7 0 19 -12 26 -27 17 -37 49 -36 66 0 20 40 46
32 50 -16 l3 -38 -112 3 -112 3 1 48 c0 26 1 49 1 52 2 11 39 4 51 -10z m458
-42 l3 -53 -110 0 -111 0 0 32 c0 23 8 39 28 55 24 20 37 22 107 20 l80 -2 3
-52z m-405 -128 l0 -50 -53 0 -53 0 1 48 c0 26 1 49 1 53 1 3 24 4 52 2 l52
-3 0 -50z m122 33 c6 -13 19 -23 30 -23 11 0 24 10 30 23 8 17 18 22 47 22
l38 0 0 -55 0 -55 -80 0 c-47 0 -80 -4 -80 -10 0 -5 7 -10 15 -10 12 0 15 -13
15 -55 l0 -56 -121 3 -122 3 0 50 0 50 87 3 c47 1 86 7 86 12 0 6 -9 10 -20
10 -18 0 -20 7 -20 55 l0 55 43 0 c34 0 44 -4 52 -22z m415 -33 l0 -55 -120 0
-120 0 0 55 0 55 120 0 120 0 0 -55z m135 0 l0 -50 -52 -3 -53 -3 0 56 0 56
53 -3 52 -3 0 -50z m-267 -127 l-3 -53 -120 0 -120 0 -3 39 c-6 66 -6 66 128
66 l121 0 -3 -52z m267 -3 l0 -50 -120 0 -120 0 -3 53 -3 53 123 -3 123 -3 0
-50z"/>
  </g>
</svg>
